<svg xmlns="http://www.w3.org/2000/svg" viewBox="0 0 512 512" role="img" aria-label="Альфа-Банк">
  <rect width="512" height="512" rx="92" fill="#121416"/>
  <path d="M256 72c-80 0-145 65-145 145 0 113 145 220 145 220s145-107 145-220c0-80-65-145-145-145Z" fill="#e53935"/>
  <circle cx="256" cy="190" r="48" fill="#121416"/>
  <path d="M164 314c24-57 68-86 132-86 48 0 84 19 108 58-28 45-72 86-108 116-23-19-62-53-96-93Z" fill="#121416" opacity=".94"/>
  <path d="M157 137c21-30 51-53 86-65l19 47c-24 8-44 23-58 43l-47-25Zm196 0-47 25c-14-20-34-35-58-43l19-47c35 12 65 35 86 65Z" fill="#f1b84a"/>
</svg>
