<svg xmlns="http://www.w3.org/2000/svg" viewBox="0 0 96 96" fill="none">
  <rect width="96" height="96" rx="24" fill="#FFF5E8"/>
  <path d="M24 34L31 14L45 30H51L65 14L72 34V61C72 74.255 61.255 85 48 85C34.745 85 24 74.255 24 61V34Z" fill="#FF9F68"/>
  <path d="M40 47C40 49.761 37.761 52 35 52C32.239 52 30 49.761 30 47C30 44.239 32.239 42 35 42C37.761 42 40 44.239 40 47Z" fill="#1E1E1E"/>
  <path d="M66 47C66 49.761 63.761 52 61 52C58.239 52 56 49.761 56 47C56 44.239 58.239 42 61 42C63.761 42 66 44.239 66 47Z" fill="#1E1E1E"/>
  <path d="M48 52L54 58H42L48 52Z" fill="#FFD0D8"/>
  <path d="M39 63C42 66 45 67.5 48 67.5C51 67.5 54 66 57 63" stroke="#1E1E1E" stroke-width="4" stroke-linecap="round"/>
  <path d="M26 36C30 31 34 31 38 36" stroke="#FFE4C9" stroke-width="4" stroke-linecap="round"/>
  <path d="M58 36C62 31 66 31 70 36" stroke="#FFE4C9" stroke-width="4" stroke-linecap="round"/>
  <path d="M18 56H33" stroke="#B76434" stroke-width="4" stroke-linecap="round"/>
  <path d="M63 56H78" stroke="#B76434" stroke-width="4" stroke-linecap="round"/>
</svg>
